<svg width="64" height="64" viewBox="0 0 120 100" fill="none" xmlns="http://www.w3.org/2000/svg">
  <!-- Fundo azul -->
  <rect width="120" height="100" fill="#1E40AF" rx="10"/>
  
  <!-- Carro + Carrinho integrado - Amarelo -->
  <g fill="#FCD34D">
    <!-- Parte frontal do carro -->
    <path d="M20 60 L25 50 L35 45 L45 45 L50 50 L55 60 L55 70 L20 70 Z"/>
    
    <!-- Capô e para-brisa -->
    <path d="M25 50 L30 42 L40 40 L45 45 Z" opacity="0.9"/>
    
    <!-- Janela frontal (transparente/azul) -->
    <rect x="28" y="47" width="10" height="8" rx="1" fill="#1E40AF"/>
    
    <!-- Parte traseira - Carrinho de compras -->
    <path d="M55 50 L70 50 L75 60 L75 70 L55 70 Z"/>
    
    <!-- Grade do carrinho -->
    <line x1="58" y1="55" x2="72" y2="55" stroke="#1E40AF" stroke-width="1.5"/>
    <line x1="58" y1="60" x2="72" y2="60" stroke="#1E40AF" stroke-width="1.5"/>
    <line x1="58" y1="65" x2="72" y2="65" stroke="#1E40AF" stroke-width="1.5"/>
    <line x1="60" y1="52" x2="60" y2="68" stroke="#1E40AF" stroke-width="1.5"/>
    <line x1="65" y1="52" x2="65" y2="68" stroke="#1E40AF" stroke-width="1.5"/>
    <line x1="70" y1="52" x2="70" y2="68" stroke="#1E40AF" stroke-width="1.5"/>
    
    <!-- Alça do carrinho -->
    <path d="M75 50 L78 35 L82 35 L85 50" stroke-width="2" stroke="#FCD34D" fill="none"/>
    
    <!-- Rodas grandes do carro -->
    <circle cx="30" cy="72" r="8"/>
    <circle cx="65" cy="72" r="8"/>
    
    <!-- Detalhes internos das rodas -->
    <circle cx="30" cy="72" r="3" fill="#1E40AF"/>
    <circle cx="65" cy="72" r="3" fill="#1E40AF"/>
    
    <!-- Rodas pequenas do carrinho -->
    <circle cx="50" cy="75" r="4"/>
    <circle cx="75" cy="75" r="4"/>
  </g>
</svg>
