<svg width="64" height="64" viewBox="0 0 140 100" fill="none" xmlns="http://www.w3.org/2000/svg">
  <!-- Fundo azul -->
  <rect width="140" height="100" fill="#1E40AF"/>
  
  <!-- Carro + Carrinho - Amarelo -->
  <g fill="#FCD34D">
    <!-- Corpo principal do carro - frente -->
    <path d="M15 55 L20 45 L30 40 L45 40 L55 45 L60 55 L60 65 L15 65 Z"/>
    
    <!-- Para-brisa/Capô -->
    <path d="M25 45 L30 38 L42 38 L48 43 Z" fill="#FCD34D"/>
    
    <!-- Parte traseira integrada ao carrinho -->
    <path d="M60 45 L80 45 L85 55 L85 65 L60 65 Z"/>
    
    <!-- Grade do carrinho (linhas horizontais) -->
    <rect x="63" y="48" width="19" height="2" fill="#1E40AF"/>
    <rect x="63" y="53" width="19" height="2" fill="#1E40AF"/>
    <rect x="63" y="58" width="19" height="2" fill="#1E40AF"/>
    
    <!-- Grade do carrinho (linhas verticais) -->
    <rect x="66" y="47" width="1.5" height="15" fill="#1E40AF"/>
    <rect x="72" y="47" width="1.5" height="15" fill="#1E40AF"/>
    <rect x="78" y="47" width="1.5" height="15" fill="#1E40AF"/>
    
    <!-- Alça do carrinho -->
    <path d="M85 45 L90 28 L95 28 L100 45" stroke="#FCD34D" stroke-width="3" fill="none"/>
    
    <!-- Rodas grandes (carro) -->
    <circle cx="28" cy="67" r="9"/>
    <circle cx="72" cy="67" r="9"/>
    
    <!-- Rodas pequenas (carrinho) -->
    <circle cx="55" cy="70" r="5"/>
    <circle cx="85" cy="70" r="5"/>
  </g>
</svg>
